<?xml version="1.0" encoding="utf-8"?>
<!-- Generator: Adobe Illustrator 21.1.0, SVG Export Plug-In . SVG Version: 6.00 Build 0)  -->
<svg version="1.1" id="レイヤー_1" xmlns="http://www.w3.org/2000/svg" xmlns:xlink="http://www.w3.org/1999/xlink" x="0px"
	 y="0px" viewBox="0 0 247.6 29.2" style="enable-background:new 0 0 247.6 29.2;" xml:space="preserve">
<style type="text/css">
	.st0{fill:#231815;}
	.st1{fill:#F6AB00;}
</style>
<g>
	<g>
		<path class="st0" d="M11.1,29.2c-2.9,0-5.3-0.7-7.2-2.1c-2-1.4-3.2-3.3-3.7-5.8L0,20.9h4.3l0.1,0.2c1,2.9,3.2,4.4,6.7,4.4
			c1.7,0,3.2-0.4,4.2-1.2c1-0.8,1.6-1.9,1.6-3.3c0-1-0.3-1.8-0.9-2.5c-0.6-0.7-1.7-1.2-3.2-1.6l-5-1.3c-4.6-1.2-6.9-3.7-6.9-7.4
			c0-2.4,0.9-4.4,2.7-5.9C5.3,0.8,7.6,0,10.3,0c2.9,0,5.2,0.7,7,2c1.8,1.3,2.9,3.2,3.5,5.5L20.9,8h-4.2l-0.1-0.2
			c-0.9-2.7-3-4.1-6.3-4.1c-1.6,0-2.9,0.4-3.9,1.2c-1,0.8-1.5,1.8-1.5,3c0,1.1,0.3,1.8,1,2.4c0.7,0.6,1.8,1.1,3.2,1.5l4.7,1.2
			c4.7,1.2,7.1,3.8,7.1,7.8c0,2.6-0.9,4.6-2.8,6.1C16.3,28.4,13.9,29.2,11.1,29.2z"/>
		<path class="st0" d="M35.9,29.2c-3.3,0-6-1-8.1-3c-2-2-3.1-4.9-3.1-8.7v-17h4.2V17c0,2.8,0.6,4.9,1.8,6.3c1.2,1.4,2.9,2,5.1,2
			c2.2,0,3.9-0.7,5.1-2c1.2-1.4,1.8-3.5,1.8-6.3V0.4h4.2v17.1c0,3.7-1,6.7-3.1,8.7C42,28.1,39.2,29.2,35.9,29.2z"/>
		<path class="st0" d="M51.8,28.8V0.4h10.7c2.9,0,5.3,0.7,6.9,2.2c1.7,1.5,2.5,3.6,2.5,6.4c0,2.8-0.9,4.9-2.5,6.4
			c-1.7,1.5-4,2.2-6.9,2.2H56v11.1H51.8z M62.4,13.8c1.7,0,3.1-0.4,4-1.3c0.9-0.9,1.4-2,1.4-3.5c0-1.5-0.4-2.7-1.4-3.6
			c-0.9-0.8-2.2-1.3-4-1.3H56v9.6H62.4z"/>
		<polygon class="st0" points="75.7,28.8 75.7,0.4 94,0.4 94,4.2 79.9,4.2 79.9,12.3 92.7,12.3 92.7,16.1 79.9,16.1 79.9,24.9 
			94,24.9 94,28.8 		"/>
		<path class="st0" d="M115.5,28.8L107.5,17h-4.4v11.7h-4.2V0.4h10.6c2.9,0,5.2,0.7,6.9,2.2c1.7,1.4,2.5,3.5,2.5,6.2
			c0,2.3-0.7,4.2-1.9,5.6c-1.2,1.3-2.8,2.1-4.8,2.5l8.2,11.9H115.5z M109.4,13.3c1.7,0,3-0.4,3.9-1.2c0.9-0.8,1.4-1.9,1.4-3.3
			c0-1.4-0.4-2.5-1.4-3.3c-0.9-0.8-2.2-1.2-3.9-1.2h-6.3v9.1H109.4z"/>
	</g>
	<g>
		<g>
			<polygon class="st1" points="143.3,28.8 143.3,16.1 128.4,16.1 128.4,28.8 124.1,28.8 124.1,0.4 128.4,0.4 128.4,12.3 
				143.3,12.3 143.3,0.4 147.6,0.4 147.6,28.8 			"/>
		</g>
		<g>
			<path class="st1" d="M164.3,29.2c-3.7,0-6.8-1.4-9.2-4.1c-2.4-2.7-3.6-6.2-3.6-10.5c0-4.2,1.2-7.8,3.6-10.5
				c2.4-2.7,5.5-4.1,9.2-4.1c3.8,0,6.9,1.4,9.3,4.1c2.4,2.7,3.6,6.2,3.6,10.5c0,4.2-1.2,7.8-3.6,10.5
				C171.2,27.8,168.1,29.2,164.3,29.2z M164.3,3.9c-2.5,0-4.6,1-6.2,3c-1.6,2-2.4,4.6-2.4,7.7s0.8,5.8,2.4,7.7c1.6,2,3.7,3,6.2,3
				c2.6,0,4.6-1,6.2-3c1.6-2,2.4-4.6,2.4-7.7s-0.8-5.8-2.4-7.7C169,4.9,166.9,3.9,164.3,3.9z"/>
		</g>
		<g>
			<polygon class="st1" points="187.9,28.8 187.9,4.2 178.2,4.2 178.2,0.4 201.8,0.4 201.8,4.2 192.1,4.2 192.1,28.8 			"/>
		</g>
		<g>
			<polygon class="st1" points="206.3,28.8 206.3,0.4 224.6,0.4 224.6,4.2 210.5,4.2 210.5,12.3 223.3,12.3 223.3,16.1 210.5,16.1 
				210.5,24.9 224.6,24.9 224.6,28.8 			"/>
		</g>
		<g>
			<polygon class="st1" points="229.3,28.8 229.3,0.4 233.5,0.4 233.5,24.9 247.6,24.9 247.6,28.8 			"/>
		</g>
	</g>
</g>
</svg>
